<svg viewBox="0 0 36 36" xmlns:xlink="http://www.w3.org/1999/xlink" xmlns="http://www.w3.org/2000/svg" data-sanitized-data-name="Layer 2" data-name="Layer 2" id="Layer_2">
  <defs>
    <style>
      .cls-1 {
        fill: #fff;
      }

      .cls-2 {
        fill: url(#linear-gradient);
      }
    </style>
    <linearGradient gradientUnits="userSpaceOnUse" gradientTransform="translate(0 -63.83) scale(1 -1)" y2="-97.28" x2="36.28" y1="-66.38" x1="-.28" id="linear-gradient">
      <stop stop-color="#0496fb" offset="0"></stop>
      <stop stop-color="#3f72ff" offset=".14"></stop>
      <stop stop-color="#784aff" offset=".28"></stop>
      <stop stop-color="#b038ee" offset=".42"></stop>
      <stop stop-color="#cd40be" offset=".57"></stop>
      <stop stop-color="#ff415a" offset=".72"></stop>
      <stop stop-color="#f7941e" offset=".86"></stop>
      <stop stop-color="#ffe800" offset=".94"></stop>
    </linearGradient>
  </defs>
  <g data-sanitized-data-name="Layer 1" data-name="Layer 1" id="Layer_1-2">
    <g data-sanitized-data-name="Layer 2-2" data-name="Layer 2-2" id="Layer_2-2">
      <g>
        <rect ry="3.5" rx="3.5" height="36" width="36" class="cls-2"></rect>
        <g>
          <path d="m23.38,8.41c2.32,0,4.2,1.88,4.2,4.2v10.77c0,2.32-1.88,4.2-4.2,4.2h-10.77c-2.32,0-4.2-1.88-4.2-4.2v-10.77c0-2.32,1.88-4.2,4.2-4.2h10.77m0-2.5h-10.77c-3.7,0-6.7,3-6.7,6.7v10.77c0,3.7,3,6.7,6.7,6.7h10.77c3.7,0,6.7-3,6.7-6.7v-10.77c0-3.7-3-6.7-6.7-6.7h0Z" class="cls-1"></path>
          <path d="m18,13.85c2.29,0,4.15,1.86,4.15,4.15s-1.86,4.15-4.15,4.15-4.15-1.86-4.15-4.15,1.86-4.15,4.15-4.15m0-2.5c-3.67,0-6.65,2.98-6.65,6.65s2.98,6.65,6.65,6.65,6.65-2.98,6.65-6.65-2.98-6.65-6.65-6.65h0Z" class="cls-1"></path>
          <circle r="1.3" cy="10.83" cx="24" class="cls-1"></circle>
        </g>
      </g>
    </g>
  </g>
</svg>