<svg viewBox="0 0 36 36" xmlns="http://www.w3.org/2000/svg" data-sanitized-data-name="Layer 2" data-name="Layer 2" id="Layer_2">
  <defs>
    <style>
      .cls-1 {
        fill: #fff;
        fill-rule: evenodd;
      }

      .cls-2 {
        fill: #fe0000;
      }
    </style>
  </defs>
  <g data-sanitized-data-name="Layer 1" data-name="Layer 1" id="Layer_1-2">
    <g>
      <rect ry="3.53" rx="3.53" height="36" width="36" class="cls-2"></rect>
      <g data-sanitized-data-name="Layer 2" data-name="Layer 2" id="Layer_2-2">
        <path d="m16.47,21.68c-.02.07-.04.13-.05.19-.89,3.48-.99,4.26-1.9,5.87-.44.77-.93,1.5-1.47,2.19-.06.08-.12.18-.24.16-.13-.03-.14-.15-.16-.26-.14-1.06-.23-2.12-.19-3.19.05-1.39.22-1.87,2.01-9.41.03-.12,0-.21-.04-.31-.43-1.16-.52-2.33-.14-3.53.81-2.57,3.73-2.77,4.24-.65.31,1.31-.52,3.03-1.16,5.57-.53,2.1,1.94,3.59,4.05,2.06,1.95-1.41,2.7-4.79,2.56-7.19-.28-4.78-5.52-5.81-8.85-4.27-3.81,1.76-4.68,6.49-2.96,8.65.22.27.38.44.31.72-.11.43-.21.87-.33,1.3-.09.32-.36.44-.68.31-.63-.26-1.16-.66-1.59-1.19-1.46-1.81-1.88-5.39.05-8.42,2.14-3.36,6.12-4.72,9.76-4.3,4.34.49,7.09,3.46,7.6,6.82.23,1.53.07,5.31-2.08,7.99-2.48,3.07-6.49,3.27-8.34,1.39-.14-.14-.26-.31-.4-.49h0Z" class="cls-1"></path>
      </g>
    </g>
  </g>
</svg>