<svg viewBox="0 0 36 36" xmlns="http://www.w3.org/2000/svg" data-sanitized-data-name="Layer 2" data-name="Layer 2" id="Layer_2">
  <defs>
    <style>
      .cls-1 {
        fill: #23f1e7;
      }

      .cls-1, .cls-2, .cls-3 {
        fill-rule: evenodd;
      }

      .cls-2 {
        fill: #fff;
      }

      .cls-3 {
        fill: #ff2e56;
      }
    </style>
  </defs>
  <g data-sanitized-data-name="Layer 1" data-name="Layer 1" id="Layer_1-2">
    <g>
      <rect ry="3.53" rx="3.53" height="36" width="36"></rect>
      <g data-sanitized-data-name="Layer 2-2" data-name="Layer 2-2" id="Layer_2-2">
        <g>
          <path d="m15.84,15.45h-.15v3.12c-.35-.1-.65-.15-1.01-.15-1.91,0-3.42,1.51-3.42,3.37,0,1.26.75,2.41,1.81,2.97-.4-.55-.6-1.26-.6-1.96,0-1.86,1.51-3.37,3.37-3.37.35,0,.7.05,1.01.15v-4.02c-.3-.05-.65-.1-1.01-.1h0Zm-5.38,12.29c1.36,1.41,3.27,2.31,5.38,2.31,4.07,0,7.39-3.27,7.39-7.29v-8.24c1.51,1.36,3.47,2.01,5.48,1.86v-3.97c-.4.1-.8.1-1.16,0v2.97c-2.01.15-4.02-.5-5.53-1.86v8.24c0,4.02-3.27,7.29-7.34,7.29-1.56,0-3.02-.5-4.22-1.31h0Zm14.22-16.99c-.95-1.06-1.51-2.46-1.46-3.82h-1.11c.25,1.51,1.26,3.02,2.56,3.82h.01Z" class="cls-3"></path>
          <path d="m14.69,14.44c-4.07,0-7.39,3.27-7.39,7.34,0,2.46,1.26,4.67,3.17,5.98-1.21-1.31-1.96-3.07-1.96-4.98,0-3.97,3.17-7.24,7.19-7.34v-.9c-.35-.05-.65-.1-1.01-.1h0Zm12.87-2.01v-1.01c-1.01.2-2.01-.1-2.86-.65.8.9,1.76,1.51,2.86,1.66h0Zm-5.43-5.48c-.05-.35-.1-.65-.1-1.01h-3.97v15.83h0c0,1.86-1.51,3.37-3.37,3.37-.6,0-1.11-.15-1.61-.4.65.85,1.66,1.41,2.76,1.41,1.91,0,3.42-1.51,3.42-3.37h0V6.95s2.87,0,2.87,0Z" class="cls-1"></path>
          <path d="m10.46,27.76c1.21.8,2.66,1.31,4.22,1.31,4.07,0,7.34-3.27,7.34-7.29v-8.24c1.51,1.36,3.52,2.01,5.53,1.86v-2.97c-1.11-.15-2.06-.75-2.86-1.66-1.31-.8-2.31-2.31-2.56-3.82h-2.86v15.83h0c0,1.86-1.51,3.37-3.42,3.37-1.11,0-2.11-.55-2.76-1.41-1.06-.55-1.81-1.71-1.81-2.97,0-1.86,1.51-3.37,3.42-3.37.35,0,.65.05,1.01.15v-3.12c-4.02.1-7.19,3.37-7.19,7.34,0,1.91.75,3.67,1.96,4.98h-.02,0Z" class="cls-2"></path>
        </g>
      </g>
    </g>
  </g>
</svg>