<svg viewBox="0 0 36 36" xmlns="http://www.w3.org/2000/svg" data-sanitized-data-name="Layer 2" data-name="Layer 2" id="Layer_2">
  <defs>
    <style>
      .cls-1 {
        fill: #fff;
      }
    </style>
  </defs>
  <g data-sanitized-data-name="Layer 1" data-name="Layer 1" id="Layer_1-2">
    <g>
      <rect ry="3.53" rx="3.53" height="36" width="36"></rect>
      <g>
        <path d="m26.8,26.35l-6.9-10-.8-1.1-4.9-7.1-.4-.6h-6l1.5,2.1,6.5,9.5.8,1.1,5.2,7.6.4.6h6l-1.4-2.1h0Zm-3.9.8l-5.4-7.9-.8-1.1-6.3-9.2h2.7l5.1,7.4.8,1.1,6.7,9.7h-2.8Z" class="cls-1"></path>
        <polygon points="16.7 18.05 17.5 19.25 16.6 20.25 9.5 28.45 7.8 28.45 15.8 19.15 16.7 18.05" class="cls-1"></polygon>
        <polygon points="27.5 7.55 19.9 16.35 19 17.45 18.2 16.35 19.1 15.25 24.3 9.25 25.8 7.55 27.5 7.55" class="cls-1"></polygon>
      </g>
    </g>
  </g>
</svg>