<svg viewBox="0 0 36 36" xmlns="http://www.w3.org/2000/svg" data-sanitized-data-name="Layer 2" data-name="Layer 2" id="Layer_2">
  <defs>
    <style>
      .cls-1 {
        fill: #fe0000;
      }

      .cls-1, .cls-2 {
        fill-rule: evenodd;
      }

      .cls-2 {
        fill: #fff;
      }

      .cls-3 {
        fill: red;
      }
    </style>
  </defs>
  <g data-sanitized-data-name="Layer 1" data-name="Layer 1" id="Layer_1-2">
    <g>
      <rect ry="3.53" rx="3.53" height="36" width="36" class="cls-3"></rect>
      <g>
        <path d="m11.1,9.95c2.3-.1,4.9-.2,6.9-.2h0c2,0,4.6.1,6.9.3,2.6.2,4,.7,4.4,3.3.2,1.2.3,2.9.3,4.6h0c0,1.7-.1,3.4-.3,4.6-.4,2.7-1.7,3.1-4.4,3.3-2.2.2-4.8.2-6.9.2h0c-2,0-4.7,0-6.9-.3-2.6-.2-4-.6-4.4-3.3-.1-1.2-.2-2.9-.2-4.6h0c0-1.7.1-3.4.2-4.6.4-2.6,1.8-3,4.4-3.3h0Z" class="cls-2"></path>
        <polygon points="15.7 14.45 21.7 17.85 15.7 21.35 15.7 14.45" class="cls-1"></polygon>
      </g>
    </g>
  </g>
</svg>